<svg width="163" height="924" viewBox="0 0 163 924" fill="none" xmlns="http://www.w3.org/2000/svg">
<path fill-rule="evenodd" clip-rule="evenodd" d="M1024.35 675.091C1018.83 679.901 1013.59 684.47 1008.67 688.788C984.053 710.396 962.16 736.239 939.914 762.499L938.525 764.138C915.738 791.032 892.477 818.327 865.206 842.452C810.864 890.522 740.549 926.054 626.721 919.14C483.036 910.413 303.785 852.538 174.558 771.162C109.94 730.472 58.1607 684.11 29.4752 635.388C0.888507 586.833 -4.76251 536 22.6141 485.618C60.9925 414.989 93.6737 364.488 143.629 323.194C193.596 281.892 261.131 249.572 369.628 215.939C412.179 202.748 448.961 181.792 484.409 158.201C499.972 147.843 515.319 136.949 530.778 125.976C532.917 124.457 535.058 122.938 537.201 121.418C554.861 108.897 572.746 96.3401 591.456 84.3284C666.148 36.3793 753.993 -2.88394 891.016 5.439C943.675 8.6376 992.269 9.3166 1036.31 9.93193C1052.74 10.1614 1068.53 10.3821 1083.66 10.7213C1139.54 11.9739 1186.3 14.8449 1223.55 25.5198C1260.58 36.1331 1287.96 54.3847 1305.47 86.4172C1323.12 118.689 1330.99 165.385 1327.75 233.325C1323.11 330.487 1267.36 423.413 1200.49 502.71C1140.59 573.747 1072.12 633.442 1024.35 675.091ZM1027.01 677.844C1128.05 589.759 1322.71 420.048 1331.62 233.599C1342.28 10.5212 1234 9.00843 1036.17 6.24415C992.153 5.62918 943.706 4.95228 891.15 1.75992C714.325 -8.98062 618.554 59.0034 528.405 122.996C477.735 158.964 428.841 193.672 368.329 212.43C150.938 279.821 96.0004 342.437 19.159 483.851C-93.0831 690.414 337.793 905.278 626.587 922.819C800.207 933.365 874.212 846.011 942.878 764.959C965.187 738.627 986.931 712.96 1011.35 691.531C1016.26 687.219 1021.5 682.653 1027.01 677.844Z" fill="#5D7295" fill-opacity="0.14"/>
<path fill-rule="evenodd" clip-rule="evenodd" d="M1011.45 674.788C1006.67 678.947 1002.13 682.898 997.861 686.633C976.5 705.34 957.508 727.71 938.239 750.406L937.024 751.836C917.275 775.094 897.14 798.669 873.537 819.502C826.533 860.988 765.727 891.65 667.229 885.667C542.794 878.109 387.525 828.069 275.596 757.729C219.626 722.557 174.825 682.513 150.019 640.476C125.312 598.608 120.442 554.831 144.07 511.437C177.319 450.374 205.603 406.774 248.819 371.133C292.046 335.482 350.501 307.564 444.502 278.499C481.446 267.076 513.369 248.929 544.105 228.521C557.602 219.559 570.91 210.134 584.308 200.645C586.16 199.334 588.012 198.022 589.868 196.709C605.172 185.884 620.662 175.033 636.867 164.654C701.533 123.238 777.554 89.3426 896.166 96.5472C941.818 99.3202 983.953 99.9132 1022.12 100.45C1036.36 100.651 1050.04 100.843 1063.15 101.138C1111.58 102.228 1152.04 104.717 1184.25 113.931C1216.24 123.084 1239.84 138.797 1254.93 166.349C1270.16 194.139 1276.99 234.414 1274.19 293.133C1270.18 376.997 1221.96 457.251 1164.04 525.791C1112.16 587.185 1052.85 638.775 1011.45 674.788ZM1014.11 677.544C1101.67 601.382 1270.36 454.643 1278.06 293.408C1287.28 100.497 1193.44 99.176 1021.98 96.7627C983.837 96.2258 942.12 95.8338 896.571 93.0671C743.322 83.7585 660.055 142.339 581.931 197.668C538.02 228.767 495.649 258.775 443.207 274.99C254.807 333.243 207.2 387.385 140.617 509.667C43.3588 688.284 416.805 874.143 667.095 889.346C817.567 898.486 881.697 822.953 941.201 752.869C960.532 730.1 979.375 707.906 1000.53 689.378C1004.79 685.65 1009.33 681.702 1014.11 677.544Z" fill="#5D7295" fill-opacity="0.14"/>
</svg>
