<svg width="18" height="19" viewBox="0 0 18 19" fill="none" xmlns="http://www.w3.org/2000/svg">
<path d="M16.6676 0.358887H1.32891C0.594141 0.358887 0 0.942477 0 1.66401V17.1592C0 17.8807 0.594141 18.4679 1.32891 18.4679H16.6676C17.4023 18.4679 18 17.8807 18 17.1627V1.66401C18 0.942477 17.4023 0.358887 16.6676 0.358887ZM5.34023 15.7904H2.66836V7.14621H5.34023V15.7904ZM4.0043 5.96842C3.14648 5.96842 2.45391 5.27165 2.45391 4.41218C2.45391 3.55271 3.14648 2.85594 4.0043 2.85594C4.85859 2.85594 5.55117 3.55271 5.55117 4.41218C5.55117 5.26812 4.85859 5.96842 4.0043 5.96842ZM15.3387 15.7904H12.6703V11.5886C12.6703 10.5876 12.6527 9.29665 11.2816 9.29665C9.89297 9.29665 9.68203 10.3896 9.68203 11.5178V15.7904H7.01719V7.14621H9.57656V8.32754H9.61172C9.9668 7.64846 10.8387 6.93046 12.1359 6.93046C14.8395 6.93046 15.3387 8.72014 15.3387 11.0474V15.7904Z" fill="white"/>
</svg>
