<svg width="1333" height="919" viewBox="0 0 1333 919" fill="none" xmlns="http://www.w3.org/2000/svg">
<path fill-rule="evenodd" clip-rule="evenodd" d="M1024.42 671.051C1018.91 675.832 1013.67 680.374 1008.75 684.666C984.128 706.144 962.234 731.832 939.988 757.933L938.6 759.562C915.813 786.295 892.552 813.426 865.28 837.405C810.939 885.186 740.624 920.505 626.795 913.632C483.11 904.957 303.859 847.431 174.633 766.545C110.015 726.099 58.2354 680.016 29.5499 631.587C0.963213 583.325 -4.6878 532.797 22.6888 482.718C61.0672 412.514 93.7484 362.317 143.704 321.272C193.67 280.219 261.205 248.093 369.702 214.662C412.253 201.551 449.036 180.721 484.483 157.272C500.047 146.976 515.394 136.148 530.853 125.24C532.992 123.731 535.132 122.221 537.276 120.71C554.936 108.264 572.82 95.7831 591.531 83.8438C666.222 36.1832 754.068 -2.84384 891.09 5.42902C943.75 8.60837 992.344 9.28329 1036.38 9.89491C1052.81 10.123 1068.6 10.3424 1083.74 10.6796C1139.61 11.9246 1186.37 14.7784 1223.62 25.389C1260.66 35.9385 1288.04 54.0801 1305.55 85.9199C1323.19 117.997 1331.07 164.412 1327.82 231.943C1323.18 328.521 1267.44 420.888 1200.57 499.707C1140.67 570.317 1072.2 629.653 1024.42 671.051ZM1027.09 673.788C1128.12 586.233 1322.79 417.543 1331.69 232.216C1342.35 10.4806 1234.08 8.97696 1036.24 6.22932C992.228 5.61806 943.781 4.94523 891.224 1.77209C714.4 -8.90381 618.628 58.6711 528.479 122.279C477.809 158.031 428.916 192.529 368.404 211.175C151.013 278.16 96.0751 340.399 19.2337 480.962C-93.0084 686.282 337.868 899.853 626.661 917.289C800.281 927.772 874.287 840.943 942.953 760.378C965.261 734.205 987.006 708.692 1011.42 687.392C1016.33 683.106 1021.57 678.568 1027.09 673.788Z" fill="#5D7295" fill-opacity="0.14"/>
<path fill-rule="evenodd" clip-rule="evenodd" d="M1011.52 670.75C1006.74 674.884 1002.2 678.812 997.936 682.524C976.575 701.118 957.582 723.354 938.313 745.913L937.099 747.335C917.35 770.453 897.214 793.886 873.611 814.593C826.607 855.83 765.801 886.307 667.304 880.36C542.869 872.848 387.6 823.109 275.671 753.193C219.701 718.231 174.899 678.429 150.093 636.645C125.387 595.029 120.517 551.515 144.145 508.382C177.394 447.687 205.677 404.349 248.894 368.922C292.121 333.486 350.575 305.736 444.577 276.846C481.521 265.492 513.444 247.454 544.18 227.168C557.676 218.261 570.985 208.892 584.383 199.461C586.234 198.157 588.087 196.853 589.942 195.548C605.246 184.788 620.737 174.002 636.941 163.686C701.607 122.519 777.629 88.8277 896.24 95.989C941.893 98.7453 984.027 99.3348 1022.2 99.8688C1036.43 100.068 1050.11 100.259 1063.22 100.552C1111.65 101.636 1152.11 104.11 1184.32 113.268C1216.32 122.366 1239.91 137.984 1255.01 165.37C1270.24 192.993 1277.07 233.026 1274.26 291.392C1270.26 374.751 1222.04 454.522 1164.11 522.65C1112.23 583.674 1052.92 634.954 1011.52 670.75ZM1014.18 673.489C1101.74 597.785 1270.44 451.93 1278.14 291.665C1287.35 99.9147 1193.52 98.6019 1022.06 96.2032C983.911 95.6695 942.195 95.2799 896.645 92.5298C743.396 83.2773 660.129 141.506 582.006 196.501C538.095 227.413 495.723 257.241 443.282 273.358C254.881 331.26 207.275 385.076 140.691 506.623C43.4335 684.165 416.88 868.906 667.17 884.017C817.642 893.102 881.772 818.023 941.275 748.361C960.607 725.729 979.45 703.669 1000.61 685.253C1004.86 681.547 1009.4 677.623 1014.18 673.489Z" fill="#5D7295" fill-opacity="0.14"/>
</svg>
