<svg width="18" height="19" viewBox="0 0 18 19" fill="none" xmlns="http://www.w3.org/2000/svg">
<path d="M16.6676 0.0180664H1.32891C0.594141 0.0180664 0 0.601656 0 1.32319V16.8184C0 17.5399 0.594141 18.127 1.32891 18.127H16.6676C17.4023 18.127 18 17.5399 18 16.8219V1.32319C18 0.601656 17.4023 0.0180664 16.6676 0.0180664ZM5.34023 15.4496H2.66836V6.80539H5.34023V15.4496ZM4.0043 5.6276C3.14648 5.6276 2.45391 4.93083 2.45391 4.07136C2.45391 3.21189 3.14648 2.51512 4.0043 2.51512C4.85859 2.51512 5.55117 3.21189 5.55117 4.07136C5.55117 4.92729 4.85859 5.6276 4.0043 5.6276ZM15.3387 15.4496H12.6703V11.2478C12.6703 10.2468 12.6527 8.95583 11.2816 8.95583C9.89297 8.95583 9.68203 10.0487 9.68203 11.177V15.4496H7.01719V6.80539H9.57656V7.98672H9.61172C9.9668 7.30763 10.8387 6.58964 12.1359 6.58964C14.8395 6.58964 15.3387 8.37932 15.3387 10.7066V15.4496Z" fill="#000F25"/>
</svg>
